<svg width="278" height="99" viewBox="0 0 278 99" fill="none" xmlns="http://www.w3.org/2000/svg">
<path d="M15.0594 64.1437L0 49.0546L48.9028 0.0544815H79.0216" fill="#333333"/>
<path d="M79.0215 45.2685H48.9028L37.6217 56.5721L52.6809 71.6613" fill="#FFE936"/>
<path d="M37.6217 86.7508L48.9028 98.0545H79.0215L52.6809 71.6613" fill="#FF0F21"/>
<path d="M37.6332 56.6043L22.5954 71.6719L37.6332 86.7395L52.6707 71.6719L37.6332 56.6043Z" fill="#FFE936"/>
<path d="M52.6707 71.6719L37.6332 86.7396L39.7323 88.8428L54.77 73.7752L52.6707 71.6719Z" fill="url(#paint0_linear_740_2840)"/>
<path d="M37.6217 86.7508L59.9677 79.0169L52.6809 71.6613" fill="url(#paint1_linear_740_2840)"/>
<path d="M98.9325 0.0544815H126.131V5.40207H104.453V21.5543H124.03V26.8257H104.453V47.2837H98.9325V0.0544815Z" fill="black"/>
<path d="M137.465 0.0544815H131.879V47.2503H137.465V0.0544815Z" fill="black"/>
<path d="M146.965 44.7479C144.84 42.3753 143.778 39.0564 143.778 34.79V13.6376H149.359V33.9385C149.359 37.1513 150.084 39.5033 151.532 40.9939C152.98 42.4845 154.927 43.2317 157.375 43.2348C159.164 43.2638 160.919 42.7348 162.397 41.722C163.857 40.7208 165.034 39.3569 165.811 37.7637C166.618 36.1707 167.036 34.4076 167.03 32.6205V13.6376H172.617V47.255H167.291V42.3974H167.03C165.984 44.1901 164.458 45.6523 162.624 46.6177C160.665 47.745 158.444 48.3355 156.184 48.3302C152.168 48.3146 149.095 47.1205 146.965 44.7479Z" fill="black"/>
<path d="M188.993 47.6311C187.906 47.2319 186.911 46.6167 186.066 45.8231C185.204 44.9932 184.533 43.9851 184.098 42.8684C183.626 41.5563 183.402 40.1671 183.439 38.7721V18.714H177.592V13.6376H183.439V4.14605H189.021V13.6376H197.169V18.714H189.021V37.4447C189.021 39.3479 189.372 40.7227 190.074 41.6222C190.905 42.6115 192.11 43.1065 193.688 43.1065C194.996 43.0944 196.274 42.7048 197.368 41.9836V47.455C196.728 47.7547 196.054 47.9769 195.362 48.1161C194.505 48.2599 193.636 48.3255 192.768 48.3111C191.478 48.3189 190.199 48.088 188.993 47.6311Z" fill="black"/>
<path d="M212.079 47.6311C210.995 47.2309 210.001 46.6155 209.158 45.8231C208.294 44.9932 207.621 43.9851 207.185 42.8684C206.714 41.556 206.492 40.1665 206.531 38.7721V18.7139H200.683V13.6376H206.531V4.14605H212.113V13.6376H220.26V18.7139H212.113V37.4447C212.113 39.3479 212.463 40.7227 213.161 41.6222C213.995 42.6115 215.201 43.1065 216.779 43.1065C218.086 43.095 219.363 42.7055 220.455 41.9836V47.455C219.816 47.755 219.144 47.9772 218.453 48.1161C217.595 48.2599 216.724 48.3252 215.854 48.3111C214.565 48.3171 213.286 48.0861 212.079 47.6311Z" fill="black"/>
<path d="M230.969 45.9991C228.44 44.4701 226.384 42.2682 225.026 39.6381C223.573 36.8174 222.838 33.6785 222.887 30.5034C222.856 27.4009 223.541 24.3327 224.889 21.54C226.163 18.89 228.13 16.6353 230.58 15.0173C233.12 13.3702 236.093 12.5219 239.116 12.5814C242.11 12.5062 245.067 13.2688 247.653 14.7841C250.052 16.2404 251.982 18.36 253.211 20.8882C254.543 23.6619 255.208 26.7111 255.151 29.7897C255.16 30.3668 255.093 30.943 254.952 31.5026H228.474C228.527 33.779 229.162 36.0043 230.319 37.9634C231.322 39.6384 232.764 41.0064 234.487 41.9171C236.116 42.7835 237.932 43.2363 239.775 43.2348C244.069 43.2348 247.376 41.2142 249.697 37.1735L254.439 39.4811C253.079 42.1162 251.05 44.3468 248.559 45.9466C246.083 47.5324 243.094 48.3255 239.591 48.3255C236.558 48.3654 233.572 47.5599 230.969 45.9991ZM249.232 26.8828C249.125 25.4103 248.721 23.9749 248.046 22.6628C247.286 21.1941 246.137 19.9628 244.727 19.1041C243.008 18.0817 241.032 17.5778 239.036 17.653C236.568 17.5916 234.173 18.5046 232.368 20.1936C230.495 21.9844 229.241 24.328 228.787 26.8828H249.232Z" fill="black"/>
<path d="M258.764 13.6376H264.09V19.0422H264.351C265.063 17.1206 266.4 15.4944 268.145 14.4273C269.89 13.2369 271.949 12.5928 274.059 12.5766C275.409 12.5442 276.75 12.7921 278 13.3045V19.3039C276.523 18.5855 274.899 18.2249 273.257 18.2525C271.663 18.2453 270.103 18.7287 268.79 19.6369C267.423 20.5918 266.314 21.874 265.565 23.3669C264.756 24.9284 264.339 26.6645 264.351 28.4243V47.255H258.769V13.6376H258.764Z" fill="black"/>
<path d="M189.421 53.3238H98.9325V84.3138H189.421V53.3238Z" fill="#333333"/>
<path d="M113.866 73.4662V61.6076H116.933C118.115 61.6076 119.02 61.832 119.648 62.2808C120.282 62.7293 120.599 63.3756 120.599 64.2196C120.599 65.6568 119.79 66.6795 118.171 67.2885C120.104 67.8815 121.07 68.9526 121.07 70.5015C121.07 71.4631 120.751 72.1975 120.112 72.705C119.472 73.2125 118.551 73.4662 117.348 73.4662H113.866ZM115.527 72.2081H115.87C117.101 72.2081 117.896 72.1307 118.259 71.9759C118.951 71.6822 119.297 71.1373 119.297 70.3414C119.297 69.6361 118.983 69.0512 118.354 68.5865C117.726 68.1165 116.941 67.8814 115.998 67.8814H115.527V72.2081ZM115.527 66.8159H116.062C116.957 66.8159 117.649 66.6234 118.139 66.2389C118.634 65.8543 118.882 65.3122 118.882 64.6122C118.882 63.4477 117.982 62.8657 116.182 62.8657H115.527V66.8159Z" fill="white"/>
<path d="M129.68 73.1859C128.626 73.5061 127.723 73.6666 126.972 73.6666C125.695 73.6666 124.651 73.2418 123.842 72.3926C123.037 71.5377 122.636 70.4323 122.636 69.0752C122.636 67.756 122.99 66.6742 123.698 65.8303C124.411 64.9864 125.322 64.5641 126.429 64.5641C127.478 64.5641 128.288 64.938 128.857 65.6861C129.433 66.4339 129.72 67.4969 129.72 68.8749L129.712 69.3639H124.241C124.47 71.431 125.479 72.4647 127.268 72.4647C127.923 72.4647 128.727 72.2883 129.68 71.936V73.1859ZM124.313 68.1779H128.139C128.139 66.5594 127.537 65.7501 126.333 65.7501C125.125 65.7501 124.451 66.5594 124.313 68.1779Z" fill="white"/>
<path d="M132.444 73.4662V60.8142H134.017V73.4662H132.444Z" fill="white"/>
<path d="M137.204 76.3588L137.388 74.9886C138.298 75.4212 139.195 75.6375 140.079 75.6375C141.852 75.6375 142.739 74.6949 142.739 72.8092V71.4391C142.159 72.6569 141.205 73.2658 139.88 73.2658C138.841 73.2658 138.016 72.8866 137.404 72.1282C136.791 71.3695 136.485 70.3467 136.485 69.0593C136.485 67.7345 136.834 66.6555 137.531 65.8222C138.229 64.9889 139.131 64.5722 140.239 64.5722C141.208 64.5722 142.042 64.9677 142.739 65.7582V64.7645H144.32V71.0945C144.32 72.4565 144.249 73.4637 144.105 74.1154C143.966 74.7723 143.703 75.3092 143.314 75.7258C142.627 76.4577 141.56 76.8235 140.111 76.8235C139.099 76.8235 138.13 76.6687 137.204 76.3588ZM142.739 70.4535V66.84C142.047 66.1187 141.293 65.7582 140.479 65.7582C139.755 65.7582 139.187 66.0491 138.777 66.6315C138.367 67.2139 138.162 68.0122 138.162 69.0272C138.162 70.9341 138.831 71.8876 140.167 71.8876C141.078 71.8876 141.935 71.4098 142.739 70.4535Z" fill="white"/>
<path d="M147.38 73.4662V64.7645H148.953V73.4662H147.38ZM147.38 63.1862V61.6076H148.953V63.1862H147.38Z" fill="white"/>
<path d="M157.531 73.4662V71.8317C156.695 73.0548 155.681 73.6666 154.488 73.6666C153.732 73.6666 153.13 73.4287 152.683 72.9534C152.236 72.4728 152.012 71.8264 152.012 71.0143V64.7645H153.586V70.5015C153.586 71.1532 153.679 71.6179 153.865 71.8957C154.057 72.1682 154.374 72.3042 154.815 72.3042C155.774 72.3042 156.679 71.6713 157.531 70.4054V64.7645H159.105V73.4662H157.531Z" fill="white"/>
<path d="M162.267 73.4662V64.7645H163.841V66.3993C164.607 65.1811 165.593 64.5722 166.796 64.5722C167.957 64.5722 168.747 65.1811 169.168 66.3993C169.914 65.1758 170.883 64.5641 172.075 64.5641C172.842 64.5641 173.436 64.7913 173.856 65.2454C174.277 65.6939 174.488 66.3244 174.488 67.1362V73.4662H172.906V67.3846C172.906 66.3912 172.515 65.8943 171.732 65.8943C170.917 65.8943 170.063 66.4739 169.168 67.633V73.4662H167.587V67.3846C167.587 66.3859 167.188 65.8862 166.389 65.8862C165.595 65.8862 164.746 66.4686 163.841 67.633V73.4662H162.267Z" fill="white"/>
<defs>
<linearGradient id="paint0_linear_740_2840" x1="37.6332" y1="86.7396" x2="39.7365" y2="88.8386" gradientUnits="userSpaceOnUse">
<stop stop-opacity="0.15"/>
<stop offset="0.2" stop-opacity="0.15"/>
<stop offset="0.85" stop-color="#616161" stop-opacity="0.01"/>
<stop offset="1" stop-color="#616161" stop-opacity="0.01"/>
</linearGradient>
<linearGradient id="paint1_linear_740_2840" x1="37.6217" y1="71.6613" x2="59.9677" y2="71.6613" gradientUnits="userSpaceOnUse">
<stop stop-opacity="0.55"/>
<stop offset="0.2" stop-opacity="0.55"/>
<stop offset="0.85" stop-color="#616161" stop-opacity="0.01"/>
<stop offset="1" stop-color="#616161" stop-opacity="0.01"/>
</linearGradient>
</defs>
</svg>
